<?xml version="1.0" standalone="no"?><svg xmlns:xlink="http://www.w3.org/1999/xlink" xmlns="http://www.w3.org/2000/svg" viewBox="0 0 1920 1234.287904681286" preserveAspectRatio="xMaxYMax slice"><g transform="scale(1.5332769002252)"><rect x="0" y="0" width="1252.2222222222222" height="805" fill="#ffffff"/><rect x="0" y="0" width="89.44" height="89.44" fill="#c1dcf0"/><circle cx="44.72" cy="44.72" r="44.72" fill="#3457e5"/><rect x="89.44" y="0" width="89.44" height="89.44" fill="#e2eef8"/><circle cx="134.16" cy="44.72" r="44.72" fill="#a8b7f4"/><rect x="178.89" y="0" width="89.44" height="89.44" fill="#4d6be8"/><g transform="translate(178.89,0) scale(4.4719999999999995) rotate(0)"><path d="M5 0H10L5 5L0 10V5L5 0Z" fill="#c2dcf0"/><path d="M20 15V20H15L20 15Z" fill="#c2dcf0"/><path d="M20 5V10L15 15L10 20H5L20 5Z" fill="#c2dcf0"/><path d="M15 0H20L5 15.0002L0 20.0002V15.0002L15 0Z" fill="#c2dcf0"/></g><rect x="268.33" y="0" width="89.44" height="89.44" fill="#7189ed"/><circle cx="313.04999999999995" cy="44.72" r="44.72" fill="#8abce2"/><rect x="357.78" y="0" width="89.44" height="89.44" fill="#bec9f7"/><circle cx="402.5" cy="44.72" r="44.72" fill="#197bc7"/><rect x="447.22" y="0" width="89.44" height="89.44" fill="#f4f6fe"/><path d="M 447.22 0 A 89.44 89.44 0 0 1  536.6600000000001 89.44 L 447.22 0 A 89.44 89.44 0 0 0 536.6600000000001 89.44" fill="#fefeff"/><rect x="536.67" y="0" width="89.44" height="89.44" fill="#8abce2"/><circle cx="581.39" cy="44.72" r="44.72" fill="#bad8ee"/><rect x="626.11" y="0" width="89.44" height="89.44" fill="#dde3fb"/><circle cx="670.83" cy="44.72" r="44.72" fill="#cde2f3"/><rect x="715.56" y="0" width="89.44" height="89.44" fill="#f9fbfd"/><path d="M 715.56 0 A 89.44 89.44 0 0 1  805 89.44 L 715.56 0 A 89.44 89.44 0 0 0 805 89.44" fill="#71aedc"/><rect x="805" y="0" width="89.44" height="89.44" fill="#5d78ea"/><path d="M 805 89.44 A 89.44 89.44 0 0 1  894.44 0 L 805 89.44 A 89.44 89.44 0 0 0 894.44 0" fill="#acd0eb"/><rect x="894.44" y="0" width="89.44" height="89.44" fill="#1679c6"/><path d="M 894.44 89.44 A 89.44 89.44 0 0 1  983.8800000000001 0 L 894.44 89.44 A 89.44 89.44 0 0 0 983.8800000000001 0" fill="#e4e9fb"/><rect x="983.89" y="0" width="89.44" height="89.44" fill="#93c1e5"/><g transform="translate(983.89,0) scale(4.4719999999999995) rotate(0)"><path d="M5 0H10L5 5L0 10V5L5 0Z" fill="#348acd"/><path d="M20 15V20H15L20 15Z" fill="#348acd"/><path d="M20 5V10L15 15L10 20H5L20 5Z" fill="#348acd"/><path d="M15 0H20L5 15.0002L0 20.0002V15.0002L15 0Z" fill="#348acd"/></g><rect x="1073.33" y="0" width="89.44" height="89.44" fill="#348bcd"/><path d="M 1073.33 0 A 89.44 89.44 0 0 1  1162.77 89.44 L 1073.33 0 A 89.44 89.44 0 0 0 1162.77 89.44" fill="#91c0e4"/><rect x="1162.78" y="0" width="89.44" height="89.44" fill="#1378c5"/><path d="M 1162.78 0 A 89.44 89.44 0 0 1  1252.22 89.44 L 1162.78 0 A 89.44 89.44 0 0 0 1252.22 89.44" fill="#d7defa"/><rect x="0" y="89.44" width="89.44" height="89.44" fill="#79b2de"/><circle cx="44.72" cy="134.16" r="44.72" fill="#6dabdb"/><rect x="89.44" y="89.44" width="89.44" height="89.44" fill="#e1e6fb"/><circle cx="134.16" cy="134.16" r="44.72" fill="#1e44e2"/><rect x="178.89" y="89.44" width="89.44" height="89.44" fill="#79b2de"/><circle cx="223.60999999999999" cy="134.16" r="44.72" fill="#7db5df"/><rect x="268.33" y="89.44" width="89.44" height="89.44" fill="#197bc7"/><circle cx="313.04999999999995" cy="134.16" r="44.72" fill="#dbe1fa"/><rect x="357.78" y="89.44" width="89.44" height="89.44" fill="#b2d3ec"/><path d="M 357.78 89.44 A 89.44 89.44 0 0 1  447.21999999999997 178.88 L 357.78 89.44 A 89.44 89.44 0 0 0 447.21999999999997 178.88" fill="#b6d5ed"/><rect x="447.22" y="89.44" width="89.44" height="89.44" fill="#76b0dd"/><path d="M 447.22 89.44 A 89.44 89.44 0 0 1  536.6600000000001 178.88 L 447.22 89.44 A 89.44 89.44 0 0 0 536.6600000000001 178.88" fill="#4a97d3"/><rect x="536.67" y="89.44" width="89.44" height="89.44" fill="#b2bff5"/><g transform="translate(536.67,89.44) scale(4.4719999999999995) rotate(0)"><path d="M5 0H10L5 5L0 10V5L5 0Z" fill="#9bc6e7"/><path d="M20 15V20H15L20 15Z" fill="#9bc6e7"/><path d="M20 5V10L15 15L10 20H5L20 5Z" fill="#9bc6e7"/><path d="M15 0H20L5 15.0002L0 20.0002V15.0002L15 0Z" fill="#9bc6e7"/></g><rect x="626.11" y="89.44" width="89.44" height="89.44" fill="#4a68e7"/><path d="M 626.11 178.88 A 89.44 89.44 0 0 1  715.55 89.44 L 626.11 178.88 A 89.44 89.44 0 0 0 715.55 89.44" fill="#eaedfc"/><rect x="715.56" y="89.44" width="89.44" height="89.44" fill="#c2cdf7"/><path d="M 715.56 89.44 A 89.44 89.44 0 0 1  805 178.88 L 715.56 89.44 A 89.44 89.44 0 0 0 805 178.88" fill="#4e9ad4"/><rect x="805" y="89.44" width="89.44" height="89.44" fill="#ecf4fa"/><g transform="translate(805,89.44) scale(4.4719999999999995) rotate(0)"><path d="M5 0H10L5 5L0 10V5L5 0Z" fill="#92a4f1"/><path d="M20 15V20H15L20 15Z" fill="#92a4f1"/><path d="M20 5V10L15 15L10 20H5L20 5Z" fill="#92a4f1"/><path d="M15 0H20L5 15.0002L0 20.0002V15.0002L15 0Z" fill="#92a4f1"/></g><rect x="894.44" y="89.44" width="89.44" height="89.44" fill="#6eacdb"/><g transform="translate(894.44,89.44) scale(4.4719999999999995) rotate(0)"><path d="M5 0H10L5 5L0 10V5L5 0Z" fill="#8095ef"/><path d="M20 15V20H15L20 15Z" fill="#8095ef"/><path d="M20 5V10L15 15L10 20H5L20 5Z" fill="#8095ef"/><path d="M15 0H20L5 15.0002L0 20.0002V15.0002L15 0Z" fill="#8095ef"/></g><rect x="983.89" y="89.44" width="89.44" height="89.44" fill="#ffffff"/><g transform="translate(983.89,89.44) scale(4.4719999999999995) rotate(0)"><path d="M5 0H10L5 5L0 10V5L5 0Z" fill="#f4f6fe"/><path d="M20 15V20H15L20 15Z" fill="#f4f6fe"/><path d="M20 5V10L15 15L10 20H5L20 5Z" fill="#f4f6fe"/><path d="M15 0H20L5 15.0002L0 20.0002V15.0002L15 0Z" fill="#f4f6fe"/></g><rect x="1073.33" y="89.44" width="89.44" height="89.44" fill="#ced7f9"/><g transform="translate(1073.33,89.44) scale(4.4719999999999995) rotate(0)"><path d="M5 0H10L5 5L0 10V5L5 0Z" fill="#a8b7f4"/><path d="M20 15V20H15L20 15Z" fill="#a8b7f4"/><path d="M20 5V10L15 15L10 20H5L20 5Z" fill="#a8b7f4"/><path d="M15 0H20L5 15.0002L0 20.0002V15.0002L15 0Z" fill="#a8b7f4"/></g><rect x="1162.78" y="89.44" width="89.44" height="89.44" fill="#1b7cc7"/><path d="M 1162.78 178.88 A 89.44 89.44 0 0 1  1252.22 89.44 L 1162.78 178.88 A 89.44 89.44 0 0 0 1252.22 89.44" fill="#388dce"/><rect x="0" y="178.89" width="89.44" height="89.44" fill="#1a41e1"/><g transform="translate(0,178.89) scale(4.4719999999999995) rotate(0)"><path d="M5 0H10L5 5L0 10V5L5 0Z" fill="#a9b8f4"/><path d="M20 15V20H15L20 15Z" fill="#a9b8f4"/><path d="M20 5V10L15 15L10 20H5L20 5Z" fill="#a9b8f4"/><path d="M15 0H20L5 15.0002L0 20.0002V15.0002L15 0Z" fill="#a9b8f4"/></g><rect x="89.44" y="178.89" width="89.44" height="89.44" fill="#72aedd"/><g transform="translate(89.44,178.89) scale(4.4719999999999995) rotate(0)"><path d="M5 0H10L5 5L0 10V5L5 0Z" fill="#8297ef"/><path d="M20 15V20H15L20 15Z" fill="#8297ef"/><path d="M20 5V10L15 15L10 20H5L20 5Z" fill="#8297ef"/><path d="M15 0H20L5 15.0002L0 20.0002V15.0002L15 0Z" fill="#8297ef"/></g><rect x="178.89" y="178.89" width="89.44" height="89.44" fill="#284de3"/><g transform="translate(178.89,178.89) scale(4.4719999999999995) rotate(0)"><path d="M5 0H10L5 5L0 10V5L5 0Z" fill="#879bef"/><path d="M20 15V20H15L20 15Z" fill="#879bef"/><path d="M20 5V10L15 15L10 20H5L20 5Z" fill="#879bef"/><path d="M15 0H20L5 15.0002L0 20.0002V15.0002L15 0Z" fill="#879bef"/></g><rect x="268.33" y="178.89" width="89.44" height="89.44" fill="#87bae2"/><path d="M 268.33 268.33 A 89.44 89.44 0 0 1  357.77 178.89 L 268.33 268.33 A 89.44 89.44 0 0 0 357.77 178.89" fill="#afbdf5"/><rect x="357.78" y="178.89" width="89.44" height="89.44" fill="#e7f1f9"/><g transform="translate(357.78,178.89) scale(4.4719999999999995) rotate(0)"><path d="M5 0H10L5 5L0 10V5L5 0Z" fill="#dbeaf6"/><path d="M20 15V20H15L20 15Z" fill="#dbeaf6"/><path d="M20 5V10L15 15L10 20H5L20 5Z" fill="#dbeaf6"/><path d="M15 0H20L5 15.0002L0 20.0002V15.0002L15 0Z" fill="#dbeaf6"/></g><rect x="447.22" y="178.89" width="89.44" height="89.44" fill="#788fed"/><g transform="translate(447.22,178.89) scale(4.4719999999999995) rotate(0)"><path d="M5 0H10L5 5L0 10V5L5 0Z" fill="#e3e7fb"/><path d="M20 15V20H15L20 15Z" fill="#e3e7fb"/><path d="M20 5V10L15 15L10 20H5L20 5Z" fill="#e3e7fb"/><path d="M15 0H20L5 15.0002L0 20.0002V15.0002L15 0Z" fill="#e3e7fb"/></g><rect x="536.67" y="178.89" width="89.44" height="89.44" fill="#3c5de6"/><path d="M 536.67 268.33 A 89.44 89.44 0 0 1  626.1099999999999 178.89 L 536.67 268.33 A 89.44 89.44 0 0 0 626.1099999999999 178.89" fill="#e1eef8"/><rect x="626.11" y="178.89" width="89.44" height="89.44" fill="#7db4df"/><path d="M 626.11 268.33 A 89.44 89.44 0 0 1  715.55 178.89 L 626.11 268.33 A 89.44 89.44 0 0 0 715.55 178.89" fill="#7189ed"/><rect x="715.56" y="178.89" width="89.44" height="89.44" fill="#eaf3fa"/><circle cx="760.28" cy="223.60999999999999" r="44.72" fill="#d7e8f5"/><rect x="805" y="178.89" width="89.44" height="89.44" fill="#2a85cb"/><circle cx="849.72" cy="223.60999999999999" r="44.72" fill="#c9d2f8"/><rect x="894.44" y="178.89" width="89.44" height="89.44" fill="#4192d1"/><circle cx="939.1600000000001" cy="223.60999999999999" r="44.72" fill="#f4f9fc"/><rect x="983.89" y="178.89" width="89.44" height="89.44" fill="#4060e6"/><path d="M 983.89 178.89 A 89.44 89.44 0 0 1  1073.33 268.33 L 983.89 178.89 A 89.44 89.44 0 0 0 1073.33 268.33" fill="#4766e7"/><rect x="1073.33" y="178.89" width="89.44" height="89.44" fill="#72aedc"/><g transform="translate(1073.33,178.89) scale(4.4719999999999995) rotate(0)"><path d="M5 0H10L5 5L0 10V5L5 0Z" fill="#627deb"/><path d="M20 15V20H15L20 15Z" fill="#627deb"/><path d="M20 5V10L15 15L10 20H5L20 5Z" fill="#627deb"/><path d="M15 0H20L5 15.0002L0 20.0002V15.0002L15 0Z" fill="#627deb"/></g><rect x="1162.78" y="178.89" width="89.44" height="89.44" fill="#0f76c4"/><path d="M 1162.78 268.33 A 89.44 89.44 0 0 1  1252.22 178.89 L 1162.78 268.33 A 89.44 89.44 0 0 0 1252.22 178.89" fill="#60a4d8"/><rect x="0" y="268.33" width="89.44" height="89.44" fill="#c7d1f8"/><g transform="translate(0,268.33) scale(4.4719999999999995) rotate(0)"><path d="M5 0H10L5 5L0 10V5L5 0Z" fill="#9dc7e7"/><path d="M20 15V20H15L20 15Z" fill="#9dc7e7"/><path d="M20 5V10L15 15L10 20H5L20 5Z" fill="#9dc7e7"/><path d="M15 0H20L5 15.0002L0 20.0002V15.0002L15 0Z" fill="#9dc7e7"/></g><rect x="89.44" y="268.33" width="89.44" height="89.44" fill="#5ba1d7"/><path d="M 89.44 268.33 A 89.44 89.44 0 0 1  178.88 357.77 L 89.44 268.33 A 89.44 89.44 0 0 0 178.88 357.77" fill="#a1c9e8"/><rect x="178.89" y="268.33" width="89.44" height="89.44" fill="#ddecf7"/><g transform="translate(178.89,268.33) scale(4.4719999999999995) rotate(0)"><path d="M5 0H10L5 5L0 10V5L5 0Z" fill="#5572e9"/><path d="M20 15V20H15L20 15Z" fill="#5572e9"/><path d="M20 5V10L15 15L10 20H5L20 5Z" fill="#5572e9"/><path d="M15 0H20L5 15.0002L0 20.0002V15.0002L15 0Z" fill="#5572e9"/></g><rect x="268.33" y="268.33" width="89.44" height="89.44" fill="#a6b5f3"/><circle cx="313.04999999999995" cy="313.04999999999995" r="44.72" fill="#6baadb"/><rect x="357.78" y="268.33" width="89.44" height="89.44" fill="#75b0dd"/><g transform="translate(357.78,268.33) scale(4.4719999999999995) rotate(0)"><path d="M5 0H10L5 5L0 10V5L5 0Z" fill="#506de8"/><path d="M20 15V20H15L20 15Z" fill="#506de8"/><path d="M20 5V10L15 15L10 20H5L20 5Z" fill="#506de8"/><path d="M15 0H20L5 15.0002L0 20.0002V15.0002L15 0Z" fill="#506de8"/></g><rect x="447.22" y="268.33" width="89.44" height="89.44" fill="#368cce"/><g transform="translate(447.22,268.33) scale(4.4719999999999995) rotate(0)"><path d="M5 0H10L5 5L0 10V5L5 0Z" fill="#8499ef"/><path d="M20 15V20H15L20 15Z" fill="#8499ef"/><path d="M20 5V10L15 15L10 20H5L20 5Z" fill="#8499ef"/><path d="M15 0H20L5 15.0002L0 20.0002V15.0002L15 0Z" fill="#8499ef"/></g><rect x="536.67" y="268.33" width="89.44" height="89.44" fill="#4192d0"/><path d="M 536.67 268.33 A 89.44 89.44 0 0 1  626.1099999999999 357.77 L 536.67 268.33 A 89.44 89.44 0 0 0 626.1099999999999 357.77" fill="#7c93ee"/><rect x="626.11" y="268.33" width="89.44" height="89.44" fill="#a9ceea"/><g transform="translate(626.11,268.33) scale(4.4719999999999995) rotate(0)"><path d="M5 0H10L5 5L0 10V5L5 0Z" fill="#a7cdea"/><path d="M20 15V20H15L20 15Z" fill="#a7cdea"/><path d="M20 5V10L15 15L10 20H5L20 5Z" fill="#a7cdea"/><path d="M15 0H20L5 15.0002L0 20.0002V15.0002L15 0Z" fill="#a7cdea"/></g><rect x="715.56" y="268.33" width="89.44" height="89.44" fill="#a2b2f3"/><circle cx="760.28" cy="313.04999999999995" r="44.72" fill="#3557e5"/><rect x="805" y="268.33" width="89.44" height="89.44" fill="#bcc7f6"/><g transform="translate(805,268.33) scale(4.4719999999999995) rotate(0)"><path d="M5 0H10L5 5L0 10V5L5 0Z" fill="#eef1fd"/><path d="M20 15V20H15L20 15Z" fill="#eef1fd"/><path d="M20 5V10L15 15L10 20H5L20 5Z" fill="#eef1fd"/><path d="M15 0H20L5 15.0002L0 20.0002V15.0002L15 0Z" fill="#eef1fd"/></g><rect x="894.44" y="268.33" width="89.44" height="89.44" fill="#f6fafd"/><g transform="translate(894.44,268.33) scale(4.4719999999999995) rotate(0)"><path d="M5 0H10L5 5L0 10V5L5 0Z" fill="#1f7fc8"/><path d="M20 15V20H15L20 15Z" fill="#1f7fc8"/><path d="M20 5V10L15 15L10 20H5L20 5Z" fill="#1f7fc8"/><path d="M15 0H20L5 15.0002L0 20.0002V15.0002L15 0Z" fill="#1f7fc8"/></g><rect x="983.89" y="268.33" width="89.44" height="89.44" fill="#5d79ea"/><g transform="translate(983.89,268.33) scale(4.4719999999999995) rotate(0)"><path d="M5 0H10L5 5L0 10V5L5 0Z" fill="#5673e9"/><path d="M20 15V20H15L20 15Z" fill="#5673e9"/><path d="M20 5V10L15 15L10 20H5L20 5Z" fill="#5673e9"/><path d="M15 0H20L5 15.0002L0 20.0002V15.0002L15 0Z" fill="#5673e9"/></g><rect x="1073.33" y="268.33" width="89.44" height="89.44" fill="#8abce2"/><circle cx="1118.05" cy="313.04999999999995" r="44.72" fill="#2d50e4"/><rect x="1162.78" y="268.33" width="89.44" height="89.44" fill="#3557e5"/><path d="M 1162.78 357.77 A 89.44 89.44 0 0 1  1252.22 268.33 L 1162.78 357.77 A 89.44 89.44 0 0 0 1252.22 268.33" fill="#90bfe4"/><rect x="0" y="357.78" width="89.44" height="89.44" fill="#2482c9"/><path d="M 0 447.21999999999997 A 89.44 89.44 0 0 1  89.44 357.78 L 0 447.21999999999997 A 89.44 89.44 0 0 0 89.44 357.78" fill="#284ce3"/><rect x="89.44" y="357.78" width="89.44" height="89.44" fill="#4d6be8"/><circle cx="134.16" cy="402.5" r="44.72" fill="#e4eff8"/><rect x="178.89" y="357.78" width="89.44" height="89.44" fill="#4a68e7"/><g transform="translate(178.89,357.78) scale(4.4719999999999995) rotate(0)"><path d="M5 0H10L5 5L0 10V5L5 0Z" fill="#f1f7fc"/><path d="M20 15V20H15L20 15Z" fill="#f1f7fc"/><path d="M20 5V10L15 15L10 20H5L20 5Z" fill="#f1f7fc"/><path d="M15 0H20L5 15.0002L0 20.0002V15.0002L15 0Z" fill="#f1f7fc"/></g><rect x="268.33" y="357.78" width="89.44" height="89.44" fill="#e6f1f9"/><g transform="translate(268.33,357.78) scale(4.4719999999999995) rotate(0)"><path d="M5 0H10L5 5L0 10V5L5 0Z" fill="#4565e7"/><path d="M20 15V20H15L20 15Z" fill="#4565e7"/><path d="M20 5V10L15 15L10 20H5L20 5Z" fill="#4565e7"/><path d="M15 0H20L5 15.0002L0 20.0002V15.0002L15 0Z" fill="#4565e7"/></g><rect x="357.78" y="357.78" width="89.44" height="89.44" fill="#3d5ee6"/><circle cx="402.5" cy="402.5" r="44.72" fill="#6a84ec"/><rect x="447.22" y="357.78" width="89.44" height="89.44" fill="#ced6f9"/><g transform="translate(447.22,357.78) scale(4.4719999999999995) rotate(0)"><path d="M5 0H10L5 5L0 10V5L5 0Z" fill="#3c8fcf"/><path d="M20 15V20H15L20 15Z" fill="#3c8fcf"/><path d="M20 5V10L15 15L10 20H5L20 5Z" fill="#3c8fcf"/><path d="M15 0H20L5 15.0002L0 20.0002V15.0002L15 0Z" fill="#3c8fcf"/></g><rect x="536.67" y="357.78" width="89.44" height="89.44" fill="#768ded"/><path d="M 536.67 447.21999999999997 A 89.44 89.44 0 0 1  626.1099999999999 357.78 L 536.67 447.21999999999997 A 89.44 89.44 0 0 0 626.1099999999999 357.78" fill="#b8c4f6"/><rect x="626.11" y="357.78" width="89.44" height="89.44" fill="#d5dcfa"/><path d="M 626.11 447.21999999999997 A 89.44 89.44 0 0 1  715.55 357.78 L 626.11 447.21999999999997 A 89.44 89.44 0 0 0 715.55 357.78" fill="#728aed"/><rect x="715.56" y="357.78" width="89.44" height="89.44" fill="#dbeaf6"/><g transform="translate(715.56,357.78) scale(4.4719999999999995) rotate(0)"><path d="M5 0H10L5 5L0 10V5L5 0Z" fill="#f6fafd"/><path d="M20 15V20H15L20 15Z" fill="#f6fafd"/><path d="M20 5V10L15 15L10 20H5L20 5Z" fill="#f6fafd"/><path d="M15 0H20L5 15.0002L0 20.0002V15.0002L15 0Z" fill="#f6fafd"/></g><rect x="805" y="357.78" width="89.44" height="89.44" fill="#60a4d8"/><path d="M 805 447.21999999999997 A 89.44 89.44 0 0 1  894.44 357.78 L 805 447.21999999999997 A 89.44 89.44 0 0 0 894.44 357.78" fill="#5ea3d8"/><rect x="894.44" y="357.78" width="89.44" height="89.44" fill="#519bd4"/><path d="M 894.44 357.78 A 89.44 89.44 0 0 1  983.8800000000001 447.21999999999997 L 894.44 357.78 A 89.44 89.44 0 0 0 983.8800000000001 447.21999999999997" fill="#183fe1"/><rect x="983.89" y="357.78" width="89.44" height="89.44" fill="#eff6fb"/><g transform="translate(983.89,357.78) scale(4.4719999999999995) rotate(0)"><path d="M5 0H10L5 5L0 10V5L5 0Z" fill="#e0e5fb"/><path d="M20 15V20H15L20 15Z" fill="#e0e5fb"/><path d="M20 5V10L15 15L10 20H5L20 5Z" fill="#e0e5fb"/><path d="M15 0H20L5 15.0002L0 20.0002V15.0002L15 0Z" fill="#e0e5fb"/></g><rect x="1073.33" y="357.78" width="89.44" height="89.44" fill="#deecf7"/><circle cx="1118.05" cy="402.5" r="44.72" fill="#bbd8ee"/><rect x="1162.78" y="357.78" width="89.44" height="89.44" fill="#f9fafe"/><g transform="translate(1162.78,357.78) scale(4.4719999999999995) rotate(0)"><path d="M5 0H10L5 5L0 10V5L5 0Z" fill="#74afdd"/><path d="M20 15V20H15L20 15Z" fill="#74afdd"/><path d="M20 5V10L15 15L10 20H5L20 5Z" fill="#74afdd"/><path d="M15 0H20L5 15.0002L0 20.0002V15.0002L15 0Z" fill="#74afdd"/></g><rect x="0" y="447.22" width="89.44" height="89.44" fill="#2280c9"/><circle cx="44.72" cy="491.94000000000005" r="44.72" fill="#3658e5"/><rect x="89.44" y="447.22" width="89.44" height="89.44" fill="#358bcd"/><circle cx="134.16" cy="491.94000000000005" r="44.72" fill="#f4f6fe"/><rect x="178.89" y="447.22" width="89.44" height="89.44" fill="#92a4f1"/><path d="M 178.89 536.6600000000001 A 89.44 89.44 0 0 1  268.33 447.22 L 178.89 536.6600000000001 A 89.44 89.44 0 0 0 268.33 447.22" fill="#b8d6ee"/><rect x="268.33" y="447.22" width="89.44" height="89.44" fill="#6d86ec"/><g transform="translate(268.33,447.22) scale(4.4719999999999995) rotate(0)"><path d="M5 0H10L5 5L0 10V5L5 0Z" fill="#ebf4fa"/><path d="M20 15V20H15L20 15Z" fill="#ebf4fa"/><path d="M20 5V10L15 15L10 20H5L20 5Z" fill="#ebf4fa"/><path d="M15 0H20L5 15.0002L0 20.0002V15.0002L15 0Z" fill="#ebf4fa"/></g><rect x="357.78" y="447.22" width="89.44" height="89.44" fill="#778eed"/><circle cx="402.5" cy="491.94000000000005" r="44.72" fill="#9bacf2"/><rect x="447.22" y="447.22" width="89.44" height="89.44" fill="#4e6ce8"/><g transform="translate(447.22,447.22) scale(4.4719999999999995) rotate(0)"><path d="M5 0H10L5 5L0 10V5L5 0Z" fill="#2f52e4"/><path d="M20 15V20H15L20 15Z" fill="#2f52e4"/><path d="M20 5V10L15 15L10 20H5L20 5Z" fill="#2f52e4"/><path d="M15 0H20L5 15.0002L0 20.0002V15.0002L15 0Z" fill="#2f52e4"/></g><rect x="536.67" y="447.22" width="89.44" height="89.44" fill="#1c42e1"/><circle cx="581.39" cy="491.94000000000005" r="44.72" fill="#2683ca"/><rect x="626.11" y="447.22" width="89.44" height="89.44" fill="#3c5de6"/><circle cx="670.83" cy="491.94000000000005" r="44.72" fill="#c4cef7"/><rect x="715.56" y="447.22" width="89.44" height="89.44" fill="#7990ee"/><path d="M 715.56 447.22 A 89.44 89.44 0 0 1  805 536.6600000000001 L 715.56 447.22 A 89.44 89.44 0 0 0 805 536.6600000000001" fill="#eaeefc"/><rect x="805" y="447.22" width="89.44" height="89.44" fill="#dfe5fb"/><circle cx="849.72" cy="491.94000000000005" r="44.72" fill="#ecf4fa"/><rect x="894.44" y="447.22" width="89.44" height="89.44" fill="#2e88cc"/><path d="M 894.44 536.6600000000001 A 89.44 89.44 0 0 1  983.8800000000001 447.22 L 894.44 536.6600000000001 A 89.44 89.44 0 0 0 983.8800000000001 447.22" fill="#f1f4fd"/><rect x="983.89" y="447.22" width="89.44" height="89.44" fill="#edf5fb"/><circle cx="1028.61" cy="491.94000000000005" r="44.72" fill="#edf0fd"/><rect x="1073.33" y="447.22" width="89.44" height="89.44" fill="#b5c2f5"/><circle cx="1118.05" cy="491.94000000000005" r="44.72" fill="#a0b0f3"/><rect x="1162.78" y="447.22" width="89.44" height="89.44" fill="#b6d5ed"/><path d="M 1162.78 536.6600000000001 A 89.44 89.44 0 0 1  1252.22 447.22 L 1162.78 536.6600000000001 A 89.44 89.44 0 0 0 1252.22 447.22" fill="#a7cce9"/><rect x="0" y="536.67" width="89.44" height="89.44" fill="#358cce"/><path d="M 0 626.1099999999999 A 89.44 89.44 0 0 1  89.44 536.67 L 0 626.1099999999999 A 89.44 89.44 0 0 0 89.44 536.67" fill="#b8c4f6"/><rect x="89.44" y="536.67" width="89.44" height="89.44" fill="#738aed"/><path d="M 89.44 536.67 A 89.44 89.44 0 0 1  178.88 626.1099999999999 L 89.44 536.67 A 89.44 89.44 0 0 0 178.88 626.1099999999999" fill="#fdfefe"/><rect x="178.89" y="536.67" width="89.44" height="89.44" fill="#6facdc"/><circle cx="223.60999999999999" cy="581.39" r="44.72" fill="#70addc"/><rect x="268.33" y="536.67" width="89.44" height="89.44" fill="#2046e2"/><path d="M 268.33 536.67 A 89.44 89.44 0 0 1  357.77 626.1099999999999 L 268.33 536.67 A 89.44 89.44 0 0 0 357.77 626.1099999999999" fill="#80b6e0"/><rect x="357.78" y="536.67" width="89.44" height="89.44" fill="#1478c5"/><circle cx="402.5" cy="581.39" r="44.72" fill="#7bb3df"/><rect x="447.22" y="536.67" width="89.44" height="89.44" fill="#c2cdf7"/><path d="M 447.22 626.1099999999999 A 89.44 89.44 0 0 1  536.6600000000001 536.67 L 447.22 626.1099999999999 A 89.44 89.44 0 0 0 536.6600000000001 536.67" fill="#73afdd"/><rect x="536.67" y="536.67" width="89.44" height="89.44" fill="#5e79ea"/><circle cx="581.39" cy="581.39" r="44.72" fill="#9daef2"/><rect x="626.11" y="536.67" width="89.44" height="89.44" fill="#77b1de"/><circle cx="670.83" cy="581.39" r="44.72" fill="#b5c1f5"/><rect x="715.56" y="536.67" width="89.44" height="89.44" fill="#388dce"/><circle cx="760.28" cy="581.39" r="44.72" fill="#eff6fb"/><rect x="805" y="536.67" width="89.44" height="89.44" fill="#4363e7"/><circle cx="849.72" cy="581.39" r="44.72" fill="#9fc8e7"/><rect x="894.44" y="536.67" width="89.44" height="89.44" fill="#c3ddf0"/><g transform="translate(894.44,536.67) scale(4.4719999999999995) rotate(0)"><path d="M5 0H10L5 5L0 10V5L5 0Z" fill="#5c78ea"/><path d="M20 15V20H15L20 15Z" fill="#5c78ea"/><path d="M20 5V10L15 15L10 20H5L20 5Z" fill="#5c78ea"/><path d="M15 0H20L5 15.0002L0 20.0002V15.0002L15 0Z" fill="#5c78ea"/></g><rect x="983.89" y="536.67" width="89.44" height="89.44" fill="#f3f8fc"/><path d="M 983.89 626.1099999999999 A 89.44 89.44 0 0 1  1073.33 536.67 L 983.89 626.1099999999999 A 89.44 89.44 0 0 0 1073.33 536.67" fill="#a8b7f4"/><rect x="1073.33" y="536.67" width="89.44" height="89.44" fill="#95c2e5"/><circle cx="1118.05" cy="581.39" r="44.72" fill="#98a9f2"/><rect x="1162.78" y="536.67" width="89.44" height="89.44" fill="#8398ef"/><path d="M 1162.78 626.1099999999999 A 89.44 89.44 0 0 1  1252.22 536.67 L 1162.78 626.1099999999999 A 89.44 89.44 0 0 0 1252.22 536.67" fill="#657feb"/><rect x="0" y="626.11" width="89.44" height="89.44" fill="#7a91ee"/><circle cx="44.72" cy="670.83" r="44.72" fill="#bad7ee"/><rect x="89.44" y="626.11" width="89.44" height="89.44" fill="#d7e8f5"/><path d="M 89.44 715.55 A 89.44 89.44 0 0 1  178.88 626.11 L 89.44 715.55 A 89.44 89.44 0 0 0 178.88 626.11" fill="#5d78ea"/><rect x="178.89" y="626.11" width="89.44" height="89.44" fill="#e7f1f9"/><circle cx="223.60999999999999" cy="670.83" r="44.72" fill="#6b84ec"/><rect x="268.33" y="626.11" width="89.44" height="89.44" fill="#539cd5"/><circle cx="313.04999999999995" cy="670.83" r="44.72" fill="#b8d6ee"/><rect x="357.78" y="626.11" width="89.44" height="89.44" fill="#99aaf2"/><circle cx="402.5" cy="670.83" r="44.72" fill="#6cabdb"/><rect x="447.22" y="626.11" width="89.44" height="89.44" fill="#388dce"/><circle cx="491.94000000000005" cy="670.83" r="44.72" fill="#738bed"/><rect x="536.67" y="626.11" width="89.44" height="89.44" fill="#3154e4"/><path d="M 536.67 626.11 A 89.44 89.44 0 0 1  626.1099999999999 715.55 L 536.67 626.11 A 89.44 89.44 0 0 0 626.1099999999999 715.55" fill="#e5f0f9"/><rect x="626.11" y="626.11" width="89.44" height="89.44" fill="#c0dbef"/><circle cx="670.83" cy="670.83" r="44.72" fill="#6eacdb"/><rect x="715.56" y="626.11" width="89.44" height="89.44" fill="#83b8e1"/><g transform="translate(715.56,626.11) scale(4.4719999999999995) rotate(0)"><path d="M5 0H10L5 5L0 10V5L5 0Z" fill="#b7d6ed"/><path d="M20 15V20H15L20 15Z" fill="#b7d6ed"/><path d="M20 5V10L15 15L10 20H5L20 5Z" fill="#b7d6ed"/><path d="M15 0H20L5 15.0002L0 20.0002V15.0002L15 0Z" fill="#b7d6ed"/></g><rect x="805" y="626.11" width="89.44" height="89.44" fill="#b3c0f5"/><circle cx="849.72" cy="670.83" r="44.72" fill="#b0d2ec"/><rect x="894.44" y="626.11" width="89.44" height="89.44" fill="#348bcd"/><g transform="translate(894.44,626.11) scale(4.4719999999999995) rotate(0)"><path d="M5 0H10L5 5L0 10V5L5 0Z" fill="#4d6be8"/><path d="M20 15V20H15L20 15Z" fill="#4d6be8"/><path d="M20 5V10L15 15L10 20H5L20 5Z" fill="#4d6be8"/><path d="M15 0H20L5 15.0002L0 20.0002V15.0002L15 0Z" fill="#4d6be8"/></g><rect x="983.89" y="626.11" width="89.44" height="89.44" fill="#a2b2f3"/><g transform="translate(983.89,626.11) scale(4.4719999999999995) rotate(0)"><path d="M5 0H10L5 5L0 10V5L5 0Z" fill="#4766e7"/><path d="M20 15V20H15L20 15Z" fill="#4766e7"/><path d="M20 5V10L15 15L10 20H5L20 5Z" fill="#4766e7"/><path d="M15 0H20L5 15.0002L0 20.0002V15.0002L15 0Z" fill="#4766e7"/></g><rect x="1073.33" y="626.11" width="89.44" height="89.44" fill="#c7d1f8"/><g transform="translate(1073.33,626.11) scale(4.4719999999999995) rotate(0)"><path d="M5 0H10L5 5L0 10V5L5 0Z" fill="#4a68e7"/><path d="M20 15V20H15L20 15Z" fill="#4a68e7"/><path d="M20 5V10L15 15L10 20H5L20 5Z" fill="#4a68e7"/><path d="M15 0H20L5 15.0002L0 20.0002V15.0002L15 0Z" fill="#4a68e7"/></g><rect x="1162.78" y="626.11" width="89.44" height="89.44" fill="#378cce"/><circle cx="1207.5" cy="670.83" r="44.72" fill="#a9ceea"/><rect x="0" y="715.56" width="89.44" height="89.44" fill="#71aedc"/><path d="M 0 715.56 A 89.44 89.44 0 0 1  89.44 805 L 0 715.56 A 89.44 89.44 0 0 0 89.44 805" fill="#1c42e1"/><rect x="89.44" y="715.56" width="89.44" height="89.44" fill="#579fd6"/><circle cx="134.16" cy="760.28" r="44.72" fill="#388dce"/><rect x="178.89" y="715.56" width="89.44" height="89.44" fill="#d1d9f9"/><circle cx="223.60999999999999" cy="760.28" r="44.72" fill="#e8f2f9"/><rect x="268.33" y="715.56" width="89.44" height="89.44" fill="#569ed6"/><circle cx="313.04999999999995" cy="760.28" r="44.72" fill="#d4dbf9"/><rect x="357.78" y="715.56" width="89.44" height="89.44" fill="#cfd7f9"/><path d="M 357.78 715.56 A 89.44 89.44 0 0 1  447.21999999999997 805 L 357.78 715.56 A 89.44 89.44 0 0 0 447.21999999999997 805" fill="#d9e9f6"/><rect x="447.22" y="715.56" width="89.44" height="89.44" fill="#dfedf7"/><circle cx="491.94000000000005" cy="760.28" r="44.72" fill="#f0f3fd"/><rect x="536.67" y="715.56" width="89.44" height="89.44" fill="#1d43e2"/><g transform="translate(536.67,715.56) scale(4.4719999999999995) rotate(0)"><path d="M5 0H10L5 5L0 10V5L5 0Z" fill="#b1d2ec"/><path d="M20 15V20H15L20 15Z" fill="#b1d2ec"/><path d="M20 5V10L15 15L10 20H5L20 5Z" fill="#b1d2ec"/><path d="M15 0H20L5 15.0002L0 20.0002V15.0002L15 0Z" fill="#b1d2ec"/></g><rect x="626.11" y="715.56" width="89.44" height="89.44" fill="#96a8f1"/><path d="M 626.11 715.56 A 89.44 89.44 0 0 1  715.55 805 L 626.11 715.56 A 89.44 89.44 0 0 0 715.55 805" fill="#83b8e1"/><rect x="715.56" y="715.56" width="89.44" height="89.44" fill="#d2e5f4"/><circle cx="760.28" cy="760.28" r="44.72" fill="#7289ed"/><rect x="805" y="715.56" width="89.44" height="89.44" fill="#f6fafd"/><g transform="translate(805,715.56) scale(4.4719999999999995) rotate(0)"><path d="M5 0H10L5 5L0 10V5L5 0Z" fill="#9cc6e7"/><path d="M20 15V20H15L20 15Z" fill="#9cc6e7"/><path d="M20 5V10L15 15L10 20H5L20 5Z" fill="#9cc6e7"/><path d="M15 0H20L5 15.0002L0 20.0002V15.0002L15 0Z" fill="#9cc6e7"/></g><rect x="894.44" y="715.56" width="89.44" height="89.44" fill="#93a5f1"/><path d="M 894.44 805 A 89.44 89.44 0 0 1  983.8800000000001 715.56 L 894.44 805 A 89.44 89.44 0 0 0 983.8800000000001 715.56" fill="#deecf7"/><rect x="983.89" y="715.56" width="89.44" height="89.44" fill="#d5dcfa"/><g transform="translate(983.89,715.56) scale(4.4719999999999995) rotate(0)"><path d="M5 0H10L5 5L0 10V5L5 0Z" fill="#ebf3fa"/><path d="M20 15V20H15L20 15Z" fill="#ebf3fa"/><path d="M20 5V10L15 15L10 20H5L20 5Z" fill="#ebf3fa"/><path d="M15 0H20L5 15.0002L0 20.0002V15.0002L15 0Z" fill="#ebf3fa"/></g><rect x="1073.33" y="715.56" width="89.44" height="89.44" fill="#6a83ec"/><circle cx="1118.05" cy="760.28" r="44.72" fill="#579fd6"/><rect x="1162.78" y="715.56" width="89.44" height="89.44" fill="#5975e9"/><g transform="translate(1162.78,715.56) scale(4.4719999999999995) rotate(0)"><path d="M5 0H10L5 5L0 10V5L5 0Z" fill="#1e7ec8"/><path d="M20 15V20H15L20 15Z" fill="#1e7ec8"/><path d="M20 5V10L15 15L10 20H5L20 5Z" fill="#1e7ec8"/><path d="M15 0H20L5 15.0002L0 20.0002V15.0002L15 0Z" fill="#1e7ec8"/></g></g></svg>