<svg width="54" height="18" viewBox="0 0 54 18" fill="none" xmlns="http://www.w3.org/2000/svg">
<path d="M0.517045 18V0.545454H7.40341C8.72727 0.545454 9.85511 0.798295 10.7869 1.30398C11.7188 1.80398 12.429 2.5 12.9176 3.39204C13.4119 4.27841 13.6591 5.30114 13.6591 6.46023C13.6591 7.61932 13.4091 8.64205 12.9091 9.52841C12.4091 10.4148 11.6847 11.1051 10.7358 11.5994C9.79261 12.0937 8.65057 12.3409 7.30966 12.3409H2.92045V9.38352H6.71307C7.4233 9.38352 8.00852 9.26136 8.46875 9.01705C8.93466 8.76705 9.28125 8.4233 9.50852 7.9858C9.74148 7.54261 9.85795 7.03409 9.85795 6.46023C9.85795 5.88068 9.74148 5.375 9.50852 4.94318C9.28125 4.50568 8.93466 4.16761 8.46875 3.92898C8.00284 3.68466 7.41193 3.5625 6.69602 3.5625H4.20739V18H0.517045ZM16.0561 0.545454H20.6072L25.4141 12.2727H25.6186L30.4254 0.545454H34.9766V18H31.397V6.6392H31.2521L26.7351 17.9148H24.2976L19.7805 6.59659H19.6357V18H16.0561V0.545454ZM41.0256 18H37.071L43.0966 0.545454H47.8523L53.8693 18H49.9148L45.5426 4.53409H45.4062L41.0256 18ZM40.7784 11.1392H50.1193V14.0199H40.7784V11.1392Z" fill="white"/>
</svg>
